<?xml version="1.0" encoding="utf-8"?>
<!-- Generator: Adobe Illustrator 19.0.0, SVG Export Plug-In . SVG Version: 6.00 Build 0)  -->
<svg version="1.1" id="Layer_1" xmlns="http://www.w3.org/2000/svg" xmlns:xlink="http://www.w3.org/1999/xlink" x="0px" y="0px"
	 viewBox="0 0 283.6 121.5" style="enable-background:new 0 0 283.6 121.5;" xml:space="preserve">
<style type="text/css">
  svg {
    fill: #DD0330;
  }
</style>
<g id="XMLID_323_">
	<g id="XMLID_330_">
		<path id="XMLID_331_" d="M214.5,79.1h10.1V56c0.8-3.2,3.5-5,6.6-5c4,0,5.9,2.6,5.9,6.4v21.7h10.1V55.3c0-8.1-4.6-13.4-12.9-13.4
			c-4.2,0-7.8,1.9-9.8,4.2v-3.3h-10.1V79.1z M191.6,50.1c4.2,0,6.4,3,6.5,6.8H184C184.9,52.4,187.7,50.1,191.6,50.1 M198.5,67.2
			c-0.8,3.1-3.3,4.6-6.8,4.6c-4.5,0-7.6-3.3-7.9-8.7h24.3v-3.1c0-10.7-5.9-18.1-16.5-18.1c-10.2,0-17.5,8.1-17.5,19
			c0,11.2,7.1,19,17.7,19c9.1,0,14.8-5,16.1-12.7H198.5z M157.5,66c-1.2,2.1-3.8,3.8-6.8,3.8c-5.4,0-8.5-4.1-8.5-9.8
			c0-5.6,3.2-9.7,8.5-9.7c3,0,5.6,1.7,6.8,3.7V66z M157.5,76.6c0,5.9-2.7,8.9-7.8,8.9c-3.9,0-6.3-1.7-7.2-5.1h-9.8
			c1.1,8.1,7.5,12.9,16.9,12.9c10.3,0,17.8-5.8,17.8-18.2V42.7h-10v2.8c-1.6-1.9-5-3.7-9-3.7c-10.5,0-16.5,8.5-16.5,18.2
			c0,9.8,6,18.2,16.5,18.2c4,0,7.3-1.8,9-3.7V76.6z M126.4,32.2c0-3.3-2.8-5.8-5.9-5.8c-3.3,0-6,2.4-6,5.8c0,3.4,2.8,5.8,6,5.8
			C123.6,37.9,126.4,35.6,126.4,32.2 M125.5,42.7h-10.1v36.4h10.1V42.7z M109.6,42.7H99L91.8,53l-7-10.3H73.7L86,60.5L72.9,79.1
			h10.6l7.9-11.4l7.8,11.4h11.2L97.1,60.3L109.6,42.7z M61.2,60.9c0,6-2.8,10.4-7.8,10.4c-5,0-7.8-4.4-7.8-10.4
			c0-6.1,2.8-10.5,7.8-10.5C58.4,50.4,61.2,54.8,61.2,60.9 M71.2,60.9c0-11.2-7.2-19-17.8-19c-10.6,0-17.8,7.8-17.8,19
			c0,11.2,7.2,19,17.8,19C64,79.9,71.2,72.1,71.2,60.9"/>
	</g>
	<path id="XMLID_325_" d="M249,43.5c0,0.1-0.1,0.2-0.3,0.2h-0.3v-0.5h0.3C248.9,43.3,249,43.4,249,43.5 M248.6,44.2l0.4,0.6h0.6
		l-0.5-0.7c0.3-0.1,0.4-0.3,0.4-0.6c0-0.4-0.3-0.7-0.7-0.7h-0.9v2h0.6v-0.6H248.6z M250.2,43.8c0,0.9-0.7,1.6-1.5,1.6
		c-0.9,0-1.5-0.7-1.5-1.6c0-0.9,0.7-1.6,1.5-1.6C249.5,42.2,250.2,42.9,250.2,43.8 M250.5,43.8c0-1.1-0.9-1.9-1.9-1.9
		c-1,0-1.9,0.8-1.9,1.9c0,1.1,0.9,1.9,1.9,1.9C249.7,45.7,250.5,44.9,250.5,43.8"/>
</g>
</svg>
