<?xml version="1.0" encoding="utf-8"?>
<!-- Generator: Adobe Illustrator 19.0.0, SVG Export Plug-In . SVG Version: 6.00 Build 0)  -->
<svg version="1.1" id="Layer_1" xmlns="http://www.w3.org/2000/svg" xmlns:xlink="http://www.w3.org/1999/xlink" x="0px" y="0px"
	 viewBox="0 0 215 66.9" style="enable-background:new 0 0 215 66.9;" xml:space="preserve">
<g id="XMLID_323_">
	<g id="XMLID_330_">
		<path id="XMLID_331_" d="M178.9,52.7H189v-23c0.8-3.2,3.5-5,6.6-5c4,0,5.9,2.6,5.9,6.4v21.7h10.1V28.9c0-8.1-4.6-13.4-12.9-13.4
			c-4.2,0-7.8,1.9-9.8,4.2v-3.3h-10.1V52.7z M156.1,23.7c4.2,0,6.4,3,6.5,6.8h-14.1C149.4,26,152.1,23.7,156.1,23.7 M162.9,40.8
			c-0.8,3.1-3.3,4.6-6.8,4.6c-4.5,0-7.6-3.3-7.9-8.7h24.3v-3.1c0-10.7-5.9-18.1-16.5-18.1c-10.2,0-17.5,8.1-17.5,19
			c0,11.2,7.1,19,17.7,19c9.1,0,14.8-5,16.1-12.7H162.9z M121.9,39.6c-1.2,2.1-3.8,3.8-6.8,3.8c-5.4,0-8.5-4.1-8.5-9.8
			c0-5.6,3.2-9.7,8.5-9.7c3,0,5.6,1.7,6.8,3.7V39.6z M121.9,50.2c0,5.9-2.7,8.9-7.8,8.9c-3.9,0-6.3-1.7-7.2-5.1h-9.8
			c1.1,8.1,7.5,12.9,16.9,12.9c10.3,0,17.8-5.8,17.8-18.2V16.3h-10v2.8c-1.6-1.9-5-3.7-9-3.7c-10.5,0-16.5,8.5-16.5,18.2
			c0,9.8,6,18.2,16.5,18.2c4,0,7.3-1.8,9-3.7V50.2z M90.8,5.8c0-3.3-2.8-5.8-5.9-5.8c-3.3,0-6,2.4-6,5.8c0,3.4,2.8,5.8,6,5.8
			C88.1,11.6,90.8,9.2,90.8,5.8 M90,16.3H79.9v36.4H90V16.3z M74,16.3H63.4l-7.2,10.3l-7-10.3H38.1l12.4,17.8L37.4,52.7h10.6
			l7.9-11.4l7.8,11.4h11.2L61.5,33.9L74,16.3z M25.6,34.5c0,6-2.8,10.4-7.8,10.4c-5,0-7.8-4.4-7.8-10.4c0-6.1,2.8-10.5,7.8-10.5
			C22.9,24,25.6,28.4,25.6,34.5 M35.7,34.5c0-11.2-7.2-19-17.8-19C7.2,15.5,0,23.3,0,34.5c0,11.2,7.2,19,17.8,19
			C28.4,53.5,35.7,45.7,35.7,34.5"/>
	</g>
	<path id="XMLID_325_" d="M213.4,17.1c0,0.1-0.1,0.2-0.3,0.2h-0.3v-0.5h0.3C213.4,16.9,213.4,17,213.4,17.1 M213,17.8l0.4,0.6h0.6
		l-0.5-0.7c0.3-0.1,0.4-0.3,0.4-0.6c0-0.4-0.3-0.7-0.7-0.7h-0.9v2h0.6v-0.6H213z M214.6,17.4c0,0.9-0.7,1.6-1.5,1.6
		c-0.9,0-1.5-0.7-1.5-1.6c0-0.9,0.7-1.6,1.5-1.6C213.9,15.8,214.6,16.5,214.6,17.4 M215,17.4c0-1.1-0.9-1.9-1.9-1.9
		c-1,0-1.9,0.8-1.9,1.9c0,1.1,0.9,1.9,1.9,1.9C214.1,19.3,215,18.5,215,17.4"/>
</g>
</svg>
